<svg xmlns="http://www.w3.org/2000/svg" width="682.667" height="682.667" version="1.0" viewBox="0 0 512 512"><path d="M.1 22.7C.2 35.3.5 44.4.7 43 2.9 29.7 7.4 16.6 12.2 9.4L15 5.2l3.2-1.4c1.8-.8 4.4-2 5.8-2.6L26.5.1H13.3L0 0zM30 1c.8.5 2.7 1 4.1 1 1.5 0 4.8 1 7.5 2.1 5.8 2.6 18.8 10 19.2 11.1.2.5.8.8 1.4.8C63.4 16 74 23.5 79 27.8c1.9 1.7 7.8 6.5 13 10.7 20.4 16.4 75.1 71.8 82.5 83.5 1.2 1.9 3 4.1 3.9 4.9.9.7 1.6 1.9 1.6 2.6 0 .6.9 2 2 3s2 2.2 2 2.6 1.7 3.4 3.8 6.6c5.1 7.6 8.8 14 10.7 18.3.8 1.9 1.9 4.2 2.5 5 1.6 2.5 5.1 10.2 7 15.5 1 2.7 3.2 8.8 4.9 13.5 5.5 14.9 9.7 30.1 13.1 48 1 5.2 2.3 11.3 2.8 13.5.6 2.2 1.6 8 2.2 13 .6 4.9 1.5 10.8 2 13 2.1 8.7 3.3 26.6 3.9 60l.6 35 15 .1c8.3.1 15.8.3 16.9.5l1.9.4-.2-19.5c-.2-20.8 1.3-50.2 2.9-58.5.5-2.8 1.7-11.7 2.5-20 .9-8.2 2-15.4 2.4-16 .5-.5 1.2-3.7 1.5-7 .8-6.3 5.8-28.1 8.1-35 .7-2.2 2.5-8.1 4-13 1.5-5 3.3-10.4 4-12 .7-1.7 2.7-6.8 4.5-11.5 4.1-10.4 14-30.6 18.8-38 1.9-3 4.7-7.3 6.1-9.5 6.1-9.5 17.3-23.9 27.7-35.5 18.2-20.4 53.5-53.8 71.4-67.7 4-3.1 8.5-6.8 9.9-8.1s6-4.7 10.1-7.5c9.7-6.7 11.1-7.5 13.6-8.6 1.2-.5 4.4-2.4 7.2-4.1l5.1-3.1 5.6-.6c3.1-.3 5.8-1 6.1-1.4l.5-.9H28.5zM485.4.9c.3.4 2.3 1.1 4.3 1.5 6.4 1.1 10.3 5.7 14.6 17.1 2.7 7.2 5.4 19.9 6.7 31.5l.7 6.5.1-28.8L512 0h-27.1z"/><path d="M28 20.1c-2.7 1.1-9 6.8-9 8.1 0 .5-.9 2.7-2 5.1l-2 4.3-.9 9.7-.9 9.7.9 10.2c.5 5.7 1.3 11.4 1.9 12.8.5 1.4 1.7 5.4 2.6 9s2.1 6.9 2.5 7.4c.5.6.9 1.6.9 2.4 0 1.5 3.5 9.8 12 28.7 1.8 3.8 3.6 8.1 4 9.5.5 1.4 2.3 6.3 4 11s3.7 11.3 4.5 14.7c.7 3.4 1.8 7 2.3 8 2.2 4 6.5 38 5 38.9-.4.3-1.8-1.2-3.1-3.3s-3.2-4.4-4.1-5.2c-.9-.7-1.6-1.9-1.6-2.6 0-.6-.9-2-2-3s-2-2.2-2-2.7c0-.6-.9-2.2-2.1-3.6-8.8-11.3-22.1-37.8-28.4-56.7-4.3-12.7-7.3-25.3-9.4-39-.5-2.8-.9 90.3-1 206.7L0 512l124.3-.1 124.2-.1-9.5-2.3c-9.8-2.3-14.6-3.9-19-6.2-1.4-.7-2.9-1.3-3.3-1.3-.5 0-4.8-2.5-9.5-5.6-9.6-6.3-20.8-17.1-24-23.3l-2.1-4 .9-.6c.5-.3 1.5.3 2.2 1.4 1.8 2.5 11.3 10.2 16 12.9 10 5.7 26.9 5.9 37.8.6 8.2-4 13.1-9.3 15.5-16.9l.6-2 3.2 5.8 3.1 5.9 4 2.8c5.4 3.7 12.9 7 15.8 7 1.3 0 2.9.5 3.5 1.1l1.1 1.1 4.9-.5c16.2-1.7 23.4-5.4 37.9-19.5l1.4-1.3v2c0 6.8-17.4 24.1-31.5 31.3-6.7 3.5-12.3 5.8-13.8 5.8-.9 0-1.8.4-2.1.9s-4.6 1.6-9.6 2.6c-4.9 1-9 1.9-9 2.1s56 .4 124.5.4H512l-.2-218.3c-.1-120-.5-215.1-.9-211.2-1.3 12-4.6 32-5.6 34.1-.6 1-1.6 4.1-2.2 6.9-1.1 4.6-3.6 11.4-7.9 22-2.3 5.7-12.1 24.5-14.3 27.7-1.1 1.4-1.9 2.8-1.9 3.1 0 .6-8.6 13.4-13 19.2-1.6 2.2-4 5.6-5.3 7.5-1.4 1.9-3.2 4.1-4.1 4.9l-1.6 1.3v-1c0-3.2 3.2-25 4-26.7.5-1.1 1.1-4 1.5-6.5 1.5-11.2 8.3-30.9 17-49.5 3.3-7.1 6.5-14.4 7.8-18.1.8-2.1 2.7-7.1 4.2-10.9 1.5-3.9 3.7-10.6 4.8-15l2.1-8 .3-14.2.4-14.2-2.6-8.3c-2.8-9.1-5.2-12.6-10.5-15.4l-3.5-1.9-7 .2-7 .1-4 1.9c-4.7 2.2-9.1 5-12 7.8C438.2 41 434.3 45 431.1 49.4c-2.1 2.8-4.5 5.7-5.4 6.5-1 .7-1.7 1.9-1.7 2.6s-.7 1.9-1.6 2.6-2 2.2-2.5 3.4c-.5 1.1-1.5 2.9-2.1 4-3.6 5.5-5.8 9.8-9.2 17.5-2.1 4.7-4.7 10.3-5.7 12.6-1 2.2-1.9 4.3-1.9 4.7 0 2.4-6.6 9.4-15.2 15.9-21.2 16.1-35.3 32.4-48.1 55.3-4.2 7.5-13.7 28.1-13.7 29.6 0 .5-.9 2.8-1.9 5.2-1 2.3-3.6 9.6-5.6 16.2s-4.3 14-5.1 16.5c-.7 2.5-2 7.4-2.8 11s-2.2 9.6-3 13.5c-.9 3.8-2.3 9.9-3.1 13.5s-1.9 9.9-2.5 14-1.5 9.1-2.1 11c-1.1 3.9-4.6 31.5-6.1 48.5-.5 6-.8 19.5-.5 30l.3 19 1.2 2.2c2.5 4.7 3 6 3.6 9l.7 3.1-1 4c-1.5 5.5-3.8 8.1-12.3 13.7-4 2.7-10.2 7.8-13.8 11.3-6.7 6.5-12.4 10.2-15.9 10.2-3.1 0-7.2-2.8-16.5-11.7-4.7-4.4-10.2-8.8-12.3-9.8-5-2.3-8.1-5.2-10.4-9.7-2.4-4.8-2.4-9.1.1-14.3l2-4.2 1.6-13.3c.8-7.4 1.3-14.3 1-15.4-.3-1.2-1.3-11.1-2.1-22.1s-1.9-22.9-2.5-26.5c-4.4-30.1-9.2-57.5-10.3-58.6-.4-.4-.7-1.7-.7-2.8 0-1.2-1.9-9.3-4.1-18.1s-4.7-18.7-5.5-22c-1.3-5.4-3.7-12.6-9.4-28.6-2.3-6.8-11.9-25.9-15.5-31.2-1.4-2.1-2.5-4-2.5-4.2s-1.5-2.5-3.2-5c-1.8-2.6-4-5.8-4.9-7.1-.9-1.4-5.3-6.6-9.9-11.5-7.5-8.2-16.3-15.6-27.8-23.3-6.9-4.7-10.1-9.1-17.3-24.2-3.8-7.9-6.9-14.5-6.9-14.8 0-.6-6.4-12-8.8-15.7-.9-1.4-2.6-4-3.8-5.7-1.2-1.8-5.9-7.5-10.5-12.7L65.6 34l-8.7-6.5-8.7-6.4-4.3-1c-5.5-1.3-12.6-1.3-15.9 0m3 228.6c0 9.6 4.4 20.5 11.6 28.9 5.5 6.5 22.7 19.2 34.4 25.4 10 5.4 29.9 17.3 34.5 20.7.6.5 2.6 1.7 4.5 2.7 14.8 8.2 46 37.6 46 43.3v1.4l-7.7-5.5c-7.9-5.7-18.8-12.2-23.3-14.1-2.8-1.2-15.7-7.2-18-8.4-.9-.5-3-1.2-4.9-1.6-1.8-.4-4.4-1.3-5.9-2.1s-3.7-1.4-4.9-1.4-2.4-.4-2.7-.9-2.8-1.4-5.6-2.1-5.3-1.6-5.6-2.1-1.5-.9-2.7-.9-3.5-.7-5.1-1.5c-1.5-.8-3.3-1.5-4-1.5-.6-.1-2.9-.9-5.1-2s-4.5-1.9-5.2-2c-3.5-.1-17.1-8.9-23.9-15.5l-5.1-5-4.4-9-4.4-9v-27l1.8-6c1-3.3 2.3-7.1 2.8-8.4l1-2.5 1 1.5c.5.7.9 2.8.9 4.6m453.8 5.8c.6 2.7 1.6 8.3 2.3 12.4l1.3 7.3-1.8 8.7-1.8 8.6-3 5.5c-5.7 10.6-11.4 16.6-22.5 23.7-5.5 3.5-19.7 9.6-25.2 10.8-1.8.4-4.4 1.3-5.9 2.1s-3.6 1.4-4.7 1.4c-1.1.1-3.1.7-4.5 1.5s-3.4 1.5-4.5 1.5-3.8.9-6 2-4.8 1.9-5.7 2c-.9 0-1.9.4-2.3.9-.3.5-1.9 1.2-3.5 1.6-1.7.4-6 2.2-9.6 4.1s-6.9 3.4-7.4 3.4c-1.4 0-15.2 8.4-22.8 14-12.1 8.8-10.6 4.3 3.2-9.5 4.4-4.5 11-10.6 14.5-13.6s7.6-6.5 9-7.7c2.3-2.2 7.2-5.5 25.1-17 3-2 7.3-4.8 9.5-6.2 2.2-1.5 7.6-4.6 12-7 11.2-6.1 27.4-17.3 32.9-22.7 5.4-5.3 11.2-13.6 12.1-17.6.4-1.5 1.1-2.9 1.5-3.2.5-.3 1.4-4.6 2.1-9.6l1.2-9.2 1.7 3.4c1 1.9 2.2 5.6 2.8 8.4m-332-5.9c8.8 2.6 20.2 10.5 24.1 16.7 1.1 1.8 3.3 5 4.8 7.2 7.1 10 15.3 29.6 15.3 36.5v3.2l-5.2-5.7c-2.9-3.2-7-6.9-9.3-8.4l-4-2.6-17.5-.2-17.6-.2-4.4-2.3-4.4-2.3-5.2-6.5c-2.8-3.6-7.4-8.8-10.2-11.5l-4.9-5-7.4-3.7c-4.1-2-8.5-4-9.9-4.4-3.2-.8-6-3.3-6-5.2v-1.4l1.8.8c3.1 1.5 18.5-.1 27.8-2.9 9.2-2.8 12.9-3.4 19.7-3.6l6.9-.1zm232.2.4c3 .6 6.1 1.7 6.8 2.3l1.3 1.1 14 .4c7.6.3 13.9.8 13.9 1.3 0 1-5.5 4.9-6.9 4.9-.6 0-2.8.9-4.8 2-2.1 1.1-4.3 2-5.1 2-3.5 0-10.6 6.2-18.4 16-6.1 7.7-11.6 12.9-15.5 14.6l-3.8 1.6h-10.2l-10.3-.1-2.1-1.2-2.1-1.1-1.1 1.1c-.6.6-2.4 1.1-4 1.1-4.4 0-12.9 5.3-18.7 11.7-2.8 3-5.3 5.4-5.5 5.2-.8-.9 1.7-10.9 4.5-17.4 11.2-26.9 22.6-39.6 41.5-46.3l3-1.1 9 .4c5 .2 11.5.8 14.5 1.5M44.8 367.5c2.8 4.6 7 8.8 12.7 13.1 5.4 3.9 11.8 7.3 30 15.8 11.1 5.2 22.6 10.7 25 11.9 1 .5 5.5 2.7 9.8 4.9 7.6 3.8 23.9 14.7 25.2 16.9 1.3 2.1-.6 2.2-3.3.2-3.4-2.5-25.5-13.3-27.4-13.3-.7-.1-3.1-.9-5.3-2s-4.5-1.9-5.1-2c-.7 0-2.5-.7-4-1.5-1.6-.8-3.6-1.5-4.4-1.5-.9 0-2-.4-2.5-.8-.6-.5-4.1-1.9-8-3.2-31.6-10.2-47.6-24.7-47.4-43l.1-5.5 1 3c.6 1.6 2.2 4.8 3.6 7m426-2.8-.5 6.8-2.7 5.2c-1.5 2.8-4.9 7.3-7.6 10l-4.9 4.9-9.8 4.8c-12.3 6.1-10 5.2-34.3 14.1-25.2 9.3-22.1 8-36.7 15.4-16.8 8.4-16.3 6.9 1.7-5.3 8.6-5.8 21.4-12.5 39-20.2 22.5-9.9 40.9-20.9 46.5-27.8 3.9-4.9 7.5-11.1 7.5-13.1 0-.8.5-1.5 1.1-1.5h1.2z"/></svg>