<svg xmlns="http://www.w3.org/2000/svg" width="682.667" height="682.667" version="1.0" viewBox="0 0 512 512"><path d="M24 1c-.8.5-3.2 1.7-5.3 2.6l-3.9 1.7-2.6 4.1c-4.1 6.3-6.1 11.3-9 21.6L.6 40.5l-.3 22-.4 22 1 7c2.1 14.9 5.1 27.5 9.6 41 6.3 18.9 19.6 45.4 28.4 56.7 1.2 1.4 2.1 3 2.1 3.6 0 .5.9 1.7 2 2.7s2 2.4 2 3c0 .7.7 1.9 1.6 2.6.9.8 2.8 3.1 4.1 5.2s2.7 3.6 3.1 3.3c1.5-.9-2.8-34.9-5-38.9-.5-1-1.6-4.6-2.3-8-.8-3.4-2.8-10-4.5-14.7s-3.5-9.6-4-11c-.4-1.4-2.2-5.7-4-9.5-8-17.8-12-27.2-12-28.4 0-.6-.4-1.9-1-2.9-2.3-4.3-6-19.6-6.9-29L13.2 57l.9-9.7.9-9.7 2-4.3c1.1-2.4 2-4.6 2-5.1 0-1.4 6.4-7 9.3-8.1 3.5-1.4 9.8-1.4 15.6 0l4.3 1 8.7 6.4 8.7 6.5 8.3 9.5c4.6 5.2 9.3 10.9 10.5 12.7 1.2 1.7 2.9 4.3 3.8 5.7C90.6 65.6 97 77 97 77.6c0 .3 3.1 6.9 6.9 14.8 7.2 15.1 10.4 19.5 17.3 24.2 11.5 7.7 20.3 15.1 27.8 23.3 4.6 4.9 9 10.1 9.9 11.5.9 1.3 3.1 4.5 4.9 7.1 1.7 2.5 3.2 4.8 3.2 5s1.1 2.1 2.5 4.2c3.6 5.3 13.2 24.4 15.5 31.2 5.7 16 8.1 23.2 9.4 28.6.8 3.3 3.3 13.2 5.5 22s4.1 16.9 4.1 18.1c0 1.1.3 2.4.7 2.8 1.1 1.1 5.9 28.5 10.3 58.6.6 3.6 1.7 15.5 2.5 26.5s1.8 20.9 2.1 22.1c.3 1.1-.2 8-1 15.4l-1.6 13.3-2 4.2c-2.5 5.2-2.5 9.5-.1 14.3 2.3 4.5 5.4 7.4 10.4 9.7 2.1 1 7.6 5.4 12.3 9.8 9.3 8.9 13.4 11.7 16.5 11.7 3.5 0 9.2-3.7 15.9-10.2 3.6-3.5 9.8-8.6 13.8-11.3 8.5-5.6 10.8-8.2 12.3-13.7l1-4-.7-3.1c-.3-1.7-1-3.8-1.4-4.7-.4-.8-1.4-2.8-2.1-4.4l-1.4-2.9.1-28.1.1-28.1 1.1-4c.6-2.2 1.8-10.9 2.7-19.3s2-16.3 2.5-17.5 1.4-5.8 1.9-10.2c.6-4.4 1.8-10.9 2.6-14.5s2.2-9.7 3.1-13.5c.8-3.9 2.2-9.9 3-13.5s2.1-8.5 2.8-11c.8-2.5 3.1-9.9 5.1-16.5 2.1-6.6 4.6-13.9 5.6-16.2 1.1-2.4 1.9-4.7 1.9-5.2 0-1.5 9.5-22 13.7-29.6 7.5-13.5 15.2-24.1 25.7-35.2l10.6-11.1 10.8-8.2c9.1-6.9 16.2-14.2 16.2-16.7 0-.4.9-2.5 1.9-4.7 1-2.3 3.6-7.9 5.7-12.6 3.4-7.7 5.6-12 9.2-17.5.6-1.1 1.6-2.9 2.1-4 .5-1.2 1.6-2.7 2.5-3.4s1.6-1.9 1.6-2.6.7-1.9 1.7-2.6c.9-.8 3.3-3.7 5.4-6.5 3.2-4.4 7.1-8.4 19.4-19.9 2.9-2.8 7.3-5.6 12-7.8l4-1.9 7-.1 7-.2 3.4 1.9c5.4 2.9 7.9 6.5 10.6 15.4l2.6 8.3-.4 14.2-.4 14.2-1.6 7c-1 3.8-2.3 8.6-3.1 10.5s-3.1 7.8-5.1 13c-3.5 9.1-6 15.1-9 21.5-8.9 19.1-15.5 38.3-17 49.5-.4 2.5-1 5.4-1.5 6.5-.8 1.7-4 23.5-4 26.7v1l1.6-1.3c.9-.8 2.7-3 4.1-4.9 1.3-1.9 3.7-5.3 5.3-7.5 4.4-5.8 13-18.6 13-19.2 0-.3.8-1.7 1.9-3.1 2.2-3.2 12-22 14.3-27.7 4.3-10.6 6.8-17.4 7.9-22 .6-2.8 1.6-5.9 2.2-6.9 1.3-2.6 4.6-24.3 5.9-38.9l1-11.8-1-11.2C508.1 22.2 500.9 4.5 490 2.4c-1.9-.4-4.1-1.1-4.7-1.7L484-.2l-1.2.9c-.7.6-3.7 1.3-6.6 1.6l-5.4.6-5 3.1c-2.8 1.8-6 3.6-7.2 4.1-4 1.7-19.7 12.4-23.7 16.1-1.4 1.3-5.9 5-9.9 8.1-17.9 13.9-53.2 47.3-71.4 67.7-10.4 11.6-21.6 26-27.7 35.5-1.4 2.2-4.2 6.5-6.1 9.5-4.9 7.5-15.9 29.9-19.2 39-1.5 4.1-3.4 8.8-4.1 10.5-.7 1.6-2.5 7-4 12-1.5 4.9-3.3 10.8-4.1 13-2 6-5.4 20.8-7.1 31-.8 4.9-1.9 9.8-2.3 10.7-.5.9-1.6 8.3-2.5 16.5-.8 8.1-2 17-2.5 19.8-1.6 8.3-3.1 37.7-2.9 58.5l.2 19.5-1.9-.4c-1.1-.2-8.6-.4-16.9-.5l-15-.1-.6-35c-.6-33.4-1.8-51.3-3.9-60-.5-2.2-1.4-8.1-2-13-.6-5-1.6-10.8-2.2-13-.5-2.2-1.8-8.3-2.8-13.5-3.4-17.9-7.7-33.6-13-48-1.8-4.7-4-10.8-5-13.5-1.9-5.3-5.4-13-7-15.5-.6-.8-1.7-3.1-2.5-5-1.9-4.3-5.6-10.7-10.7-18.3-2.1-3.2-3.8-6.2-3.8-6.6s-.9-1.6-2-2.6-2-2.4-2-3c0-.7-.7-1.9-1.6-2.6-.9-.8-2.7-3-3.9-4.9-7.4-11.7-62.1-67.1-82.5-83.5-5.2-4.2-11.1-9-13-10.7C74 23.5 63.4 16 62.2 16c-.6 0-1.2-.3-1.4-.8-.4-1.1-13.4-8.5-19.2-11.1C38.9 3 35.5 2 33.9 2c-1.5 0-3.1-.5-3.4-1-.8-1.2-4.4-1.2-6.5 0M28.1 245.1c-.5 1.3-1.8 5.1-2.8 8.4l-1.8 6v27l4.8 9.7 4.8 9.7 5.7 4.9c8.7 7.4 19.3 14.1 22.5 14.2.7.1 3 .9 5.2 2s4.5 1.9 5.1 2c.7 0 2.5.7 4 1.5 1.6.8 3.9 1.5 5.1 1.5s2.4.4 2.7.9 2.8 1.4 5.6 2.1 5.3 1.6 5.6 2.1 1.5.9 2.7.9 3.4.6 4.9 1.4 4.1 1.7 5.9 2.1c1.9.4 4 1.1 4.9 1.6 3.3 1.7 18.9 8.9 19.4 8.9.9 0 14.8 8.7 22.1 13.8l7.5 5.3v-1.4c0-5.7-31.2-35.1-46-43.3-1.9-1-3.9-2.2-4.5-2.7-4.6-3.4-24.5-15.3-34.5-20.7-11.7-6.2-28.9-18.9-34.4-25.4-7.2-8.4-11.6-19.3-11.6-28.9 0-1.8-.4-3.9-.9-4.6l-1-1.5zM479.1 251.9c-.7 5-1.6 9.3-2.1 9.6-.4.3-1.1 1.7-1.5 3.2-.9 4-6.7 12.3-12.1 17.6-5.5 5.4-21.7 16.6-32.9 22.7-4.4 2.4-9.8 5.5-12 7-2.2 1.4-6.5 4.2-9.5 6.2-17 10.9-22.8 14.8-25.1 16.9-1.4 1.3-5.5 4.8-9 7.8s-10.1 9.1-14.5 13.6c-13.8 13.8-15.3 18.3-3.2 9.5 7.6-5.6 21.4-14 22.8-14 .5 0 3.8-1.5 7.4-3.4s7.9-3.7 9.6-4.1c1.6-.4 3.2-1.1 3.5-1.6.4-.5 1.4-.9 2.3-.9.9-.1 3.5-.9 5.7-2s4.9-2 6-2 3.1-.7 4.5-1.5 3.3-1.4 4.3-1.5c1.1 0 3.3-.6 5-1.4 1.8-.7 6.4-2.4 10.2-3.6 3.9-1.2 7.5-2.6 8-3 .6-.4 2.4-1.2 4.2-1.8 7-2.3 21.3-13.2 25.9-19.5 4.5-6.3 7.7-13.3 9.5-20.6 2.1-8.3 2.3-11.9 1-18.8-.6-2.6-1.5-7.5-2.2-10.8-.6-3.3-1.9-7.5-2.9-9.4l-1.7-3.4z"/><path d="M129.5 248.2c-2.2.6-6.2 1.7-8.9 2.5s-7.9 1.9-11.5 2.4-8.2 1.1-10.2 1.5l-3.7.6-.6-1.1c-1-1.6-3.6-1.4-3.6.2 0 1.8 2.9 4.3 6 5.1 1.4.4 5.8 2.4 9.9 4.4l7.4 3.7 4.9 5c2.8 2.7 7.4 7.9 10.2 11.5l5.2 6.5 4.4 2.3 4.4 2.3 17.6.2 17.5.2 4 2.6c2.3 1.5 6.4 5.2 9.3 8.4l5.2 5.7V309c0-6.9-8.2-26.5-15.3-36.5-1.5-2.2-3.7-5.4-4.8-7.2-3.8-6-14.9-13.8-23.6-16.6l-5.2-1.7-7.3.1c-4 .1-9.1.6-11.3 1.1M358.5 248.2c-18.9 6.7-30.3 19.4-41.5 46.3-2.8 6.5-5.3 16.5-4.5 17.4.2.2 2.7-2.2 5.5-5.2 5.8-6.4 14.3-11.7 18.7-11.7 1.6 0 3.4-.5 4-1.1l1.1-1.1 2.1 1.1 2.1 1.2 10.3.1h10.2l3.8-1.6c3.8-1.7 11.6-9 16.5-15.6 6-8.1 14-15 17.4-15 .8 0 3-.9 5.1-2 2-1.1 4.2-2 4.8-2 1.4 0 6.9-3.9 6.9-4.9 0-.5-6.3-1-13.9-1.3l-14-.4-1.3-1.1c-2.1-1.8-11.6-3.5-21.3-3.8l-9-.4zM40.1 363c-.1 10.8 5.1 19.9 16.3 28.3 5.9 4.4 20.7 11.7 26.9 13.2 1.5.4 3 1.1 3.3 1.6s1.5.9 2.7.9 3.4.6 4.9 1.4 4 1.7 5.7 2.1 3.3 1.1 3.6 1.6c.4.5 1.4.9 2.3.9.9.1 3.5.9 5.7 2s4.6 1.9 5.3 2c1.9 0 24 10.8 27.4 13.3 2.7 2 4.6 1.9 3.3-.2-1.3-2.2-17.6-13.1-25.2-16.9-4.3-2.2-8.8-4.4-9.8-5-1.1-.6-5.6-2.7-10-4.8-34.2-15.9-38.7-18.2-45-22.8q-11.85-8.7-16.2-20.1l-1.1-3zM469 359.5c0 2-3.6 8.2-7.5 13.1-5.7 7-21 16.1-47 27.9-20.2 9.3-30.3 14.5-38.5 20.1-18 12.2-18.5 13.7-1.7 5.3 14.6-7.4 11.5-6.1 36.7-15.4 24.3-8.9 22-8 34.3-14.1l9.8-4.8 4.9-4.9c2.7-2.7 6.1-7.2 7.6-10l2.7-5.2.5-6.8.5-6.7h-1.2c-.6 0-1.1.7-1.1 1.5M253.5 466.5c-2.4 7.6-7.3 12.9-15.5 16.9-6.7 3.3-19.9 5.4-23.4 3.8-1.1-.6-4-1.3-6.3-1.6-6.3-.9-16.4-7.4-23.5-15-1.5-1.7-3-2.7-3.3-2.4-1.2 1.2 4.1 9.2 10.4 15.7 5.8 6 22.4 18.1 24.8 18.1.4 0 1.9.6 3.3 1.3 8 4.1 26.6 8.7 35.2 8.7 5.7 0 24.7-3.7 26.3-5.1.5-.5 1.5-.9 2.3-.9 1.4 0 7.1-2.4 13.7-5.8C311.6 493 329 475.7 329 469v-2.1l-5.1 4.8c-2.9 2.6-5.7 5.3-6.3 5.9-.6.5-3.8 2.5-7.1 4.3-6 3.2-11.6 4.8-20.8 5.8l-4.9.5-1.1-1.1c-.6-.6-2.2-1.1-3.5-1.1-2.9 0-10.4-3.3-15.8-7l-4-2.8-3.1-5.9-3.2-5.8z"/></svg>